<?xml version="1.0" encoding="utf-8"?>
<!-- Generator: Adobe Illustrator 22.1.0, SVG Export Plug-In . SVG Version: 6.00 Build 0)  -->
<svg version="1.1" id="Layer_1" xmlns="http://www.w3.org/2000/svg" xmlns:xlink="http://www.w3.org/1999/xlink" x="0px" y="0px"
	 viewBox="0 0 8 8" style="enable-background:new 0 0 8 8;" xml:space="preserve">
<path fill="white" class="st0" d="M4,0C1.8,0,0,1.8,0,4s1.8,4,4,4s4-1.8,4-4S6.2,0,4,0z M4,1c1.7,0,3,1.3,3,3S5.7,7,4,7S1,5.7,1,4S2.3,1,4,1z
	 M3.5,2v2.2l0.2,0.1l0.5,0.5l0.3,0.4l0.7-0.7L4.8,4.2L4.5,3.8V2L3.5,2L3.5,2z"/>
</svg>
