<?xml version="1.0" encoding="utf-8"?>
<svg version="1.1" xmlns="http://www.w3.org/2000/svg" xmlns:xlink="http://www.w3.org/1999/xlink" x="0px" y="0px"
	 viewBox="0 0 85.7 114.3" style="enable-background:new 0 0 85.7 54.3;" xml:space="preserve">

    <g>
        <g>
            <path style="fill: #FFF" d="M61.7,45.4c0.6,13.3-0.8,10.7-11.9,20.5c-3.9,3.5-3.3,1.6-3.3,5.7c0,0.6,12.9,10.1,14.4,13.1
                c1.2,2.3,1,8.8,0.8,10.7c3.1,0,2.7,0.2,2.7,4.1c0,0.8-0.6,1.4-1.4,1.4H22.5c-1.4,0-3.7-5.5,1.4-5.5c-0.2-1.8-0.4-8.4,0.6-10.7
                c1.4-3.1,14.4-12.5,14.4-13.1c0-4.1,0.8-2.3-3.1-5.7c-11.3-9.8-12.7-7.2-12.1-20.5c-3.1,0-2.7-0.4-2.7-4.3c0-0.8,0.6-1.4,1.4-1.4
                h40.4C64.3,39.7,66.6,45.4,61.7,45.4z M26.6,95.5h3.1l11.9-12.7c0.6-0.8,1.6-0.8,2.5,0l11.7,12.7h3.1c0.2-0.4,0.4-7.8-0.4-9.4
                c-1.2-2.9-14.6-11.7-14.6-14.4c0-3.7-0.6-3.5,4.1-7.8C60.2,52.8,59,57.7,59,45.6v-0.2H26.6l0.2,7.6c1,5.7,14.8,11.9,14.8,15.6
                c0,3.9,0.8,3.7-3.9,7.8c-12.5,11.1-11.1,6.4-11.1,18.5C26.6,95.1,26.6,95.3,26.6,95.5z"/>
            <path style="fill: #FFF" d="M43.2,64.9l4.9-5.3H37.3l4.9,5.3C42.6,65.1,43,65.1,43.2,64.9z"/>
        </g>
    </g>

</svg>
