<?xml version="1.0" encoding="utf-8"?>
<!-- Generator: Adobe Illustrator 16.0.4, SVG Export Plug-In . SVG Version: 6.00 Build 0)  -->
<!DOCTYPE svg PUBLIC "-//W3C//DTD SVG 1.1//EN" "http://www.w3.org/Graphics/SVG/1.1/DTD/svg11.dtd">
<svg version="1.1" id="Layer_1" xmlns="http://www.w3.org/2000/svg" xmlns:xlink="http://www.w3.org/1999/xlink" x="0px" y="0px"
	 width="707.212px" height="186.573px" viewBox="0 0 707.212 186.573" enable-background="new 0 0 707.212 186.573"
	 xml:space="preserve">
<g>
	<rect x="345.181" y="182.758" fill="#FCB813" width="314.664" height="3.815"/>
	<g>
		<circle fill="none" cx="138.854" cy="137.644" r="0.418"/>
		<radialGradient id="SVGID_1_" cx="137.3784" cy="130.2637" r="134.4475" gradientUnits="userSpaceOnUse">
			<stop  offset="0" style="stop-color:#FFFFFF"/>
			<stop  offset="0.1263" style="stop-color:#FFFEFC"/>
			<stop  offset="0.2371" style="stop-color:#FFFAF1"/>
			<stop  offset="0.342" style="stop-color:#FFF4DF"/>
			<stop  offset="0.4434" style="stop-color:#FFEBC6"/>
			<stop  offset="0.5413" style="stop-color:#FFE0A5"/>
			<stop  offset="0.6" style="stop-color:#FFD88E"/>
			<stop  offset="0.616" style="stop-color:#FFD581"/>
			<stop  offset="0.6629" style="stop-color:#FECC5F"/>
			<stop  offset="0.7132" style="stop-color:#FDC543"/>
			<stop  offset="0.7673" style="stop-color:#FDBF2E"/>
			<stop  offset="0.827" style="stop-color:#FCBB1F"/>
			<stop  offset="0.8967" style="stop-color:#FCB916"/>
			<stop  offset="1" style="stop-color:#FCB813"/>
		</radialGradient>
		<path fill="url(#SVGID_1_)" d="M271.827,106.235C257.585,45.347,202.95,0,137.72,0C71.392,0,16.017,46.888,2.93,109.324
			l29.087-16.572l16.036,11.226c0,0,9.382-4.246,11.356-5.493l11.595,12.22c0,0,25.174,19.95,25.911,19.95
			c0.743,0,22.215-12.464,22.215-12.464l19.252-13.224l16.777,12.222l12.586,2.496l12.832,8.727c0,0,31.097-20.702,36.034-23.191
			c0,0,13.571,4.984,14.803,4.741c1.233-0.255,22.457-16.712,22.457-16.712L271.827,106.235z"/>
		
			<radialGradient id="SVGID_2_" cx="73.2329" cy="137.6865" r="137.7675" gradientTransform="matrix(0.9145 0 0 1 70.8027 0)" gradientUnits="userSpaceOnUse">
			<stop  offset="0.53" style="stop-color:#FFFFFF"/>
			<stop  offset="0.5983" style="stop-color:#FFF7E9"/>
			<stop  offset="0.7402" style="stop-color:#FFE3B0"/>
			<stop  offset="0.77" style="stop-color:#FFDFA3"/>
			<stop  offset="0.8036" style="stop-color:#FFD991"/>
			<stop  offset="0.8709" style="stop-color:#FFC961"/>
			<stop  offset="0.88" style="stop-color:#FFC75A"/>
			<stop  offset="0.91" style="stop-color:#FEC34A"/>
			<stop  offset="0.9657" style="stop-color:#FDBE32"/>
			<stop  offset="1" style="stop-color:#FDBC29"/>
		</radialGradient>
		<path fill="url(#SVGID_2_)" d="M139.052,67.228c1.321,0,2.717,0.033,4.02,0.104l4.9-66.953C144.588,0.129,141.17,0,137.72,0
			c-2.23,0-4.448,0.058-6.653,0.162l3.268,67.229C135.894,67.288,137.465,67.228,139.052,67.228z"/>
		
			<radialGradient id="SVGID_3_" cx="55.936" cy="-197.1772" r="137.9571" gradientTransform="matrix(0.8479 -0.3426 0.3746 0.9272 164.2077 339.6694)" gradientUnits="userSpaceOnUse">
			<stop  offset="0.53" style="stop-color:#FFFFFF"/>
			<stop  offset="0.5983" style="stop-color:#FFF7E9"/>
			<stop  offset="0.7402" style="stop-color:#FFE3B0"/>
			<stop  offset="0.77" style="stop-color:#FFDFA3"/>
			<stop  offset="0.8036" style="stop-color:#FFD991"/>
			<stop  offset="0.8709" style="stop-color:#FFC961"/>
			<stop  offset="0.88" style="stop-color:#FFC75A"/>
			<stop  offset="0.91" style="stop-color:#FEC34A"/>
			<stop  offset="0.9657" style="stop-color:#FDBE32"/>
			<stop  offset="1" style="stop-color:#FDBC29"/>
		</radialGradient>
		<path fill="url(#SVGID_3_)" d="M116.206,71.055L95.523,6.593c-5.388,1.734-10.629,3.788-15.703,6.142l28.442,61.586
			C110.819,73.078,113.488,71.987,116.206,71.055z"/>
		
			<radialGradient id="SVGID_4_" cx="172.6719" cy="-504.873" r="137.9852" gradientTransform="matrix(0.6578 -0.6352 0.6947 0.7193 374.9227 610.5229)" gradientUnits="userSpaceOnUse">
			<stop  offset="0.53" style="stop-color:#FFFFFF"/>
			<stop  offset="0.5983" style="stop-color:#FFF7E9"/>
			<stop  offset="0.7402" style="stop-color:#FFE3B0"/>
			<stop  offset="0.77" style="stop-color:#FFDFA3"/>
			<stop  offset="0.8036" style="stop-color:#FFD991"/>
			<stop  offset="0.8709" style="stop-color:#FFC961"/>
			<stop  offset="0.88" style="stop-color:#FFC75A"/>
			<stop  offset="0.91" style="stop-color:#FEC34A"/>
			<stop  offset="0.9657" style="stop-color:#FDBE32"/>
			<stop  offset="1" style="stop-color:#FDBC29"/>
		</radialGradient>
		<path fill="url(#SVGID_4_)" d="M93.373,84.155L49.73,31.775c-4.347,3.616-8.465,7.492-12.338,11.608l49.772,46.802
			C89.083,88.077,91.215,86.014,93.373,84.155z"/>
		<radialGradient id="SVGID_5_" cx="137.7729" cy="137.6895" r="137.8761" gradientUnits="userSpaceOnUse">
			<stop  offset="0.53" style="stop-color:#FFFFFF"/>
			<stop  offset="0.5983" style="stop-color:#FFF7E9"/>
			<stop  offset="0.7402" style="stop-color:#FFE3B0"/>
			<stop  offset="0.77" style="stop-color:#FFDFA3"/>
			<stop  offset="0.8036" style="stop-color:#FFD991"/>
			<stop  offset="0.8709" style="stop-color:#FFC961"/>
			<stop  offset="0.88" style="stop-color:#FFC75A"/>
			<stop  offset="0.91" style="stop-color:#FEC34A"/>
			<stop  offset="0.9657" style="stop-color:#FDBE32"/>
			<stop  offset="1" style="stop-color:#FDBC29"/>
		</radialGradient>
		<path fill="url(#SVGID_5_)" d="M77.174,104.239L16.743,71.856c-2.296,4.113-5.613,11.152-7.164,15.301l64.11,24.863
			C74.701,109.369,75.86,106.729,77.174,104.239z"/>
		
			<radialGradient id="SVGID_6_" cx="227.4575" cy="445.3564" r="137.8455" gradientTransform="matrix(0.8479 0.3426 -0.3746 0.9272 111.7459 -353.1749)" gradientUnits="userSpaceOnUse">
			<stop  offset="0.53" style="stop-color:#FFFFFF"/>
			<stop  offset="0.5983" style="stop-color:#FFF7E9"/>
			<stop  offset="0.7402" style="stop-color:#FFE3B0"/>
			<stop  offset="0.77" style="stop-color:#FFDFA3"/>
			<stop  offset="0.8036" style="stop-color:#FFD991"/>
			<stop  offset="0.8709" style="stop-color:#FFC961"/>
			<stop  offset="0.88" style="stop-color:#FFC75A"/>
			<stop  offset="0.91" style="stop-color:#FEC34A"/>
			<stop  offset="0.9657" style="stop-color:#FDBE32"/>
			<stop  offset="1" style="stop-color:#FDBC29"/>
		</radialGradient>
		<path fill="url(#SVGID_6_)" d="M169.293,74.083l29.422-59.864c-5.041-2.493-10.253-4.688-15.62-6.559l-21.998,63.108
			C163.878,71.691,166.679,72.839,169.293,74.083z"/>
		
			<radialGradient id="SVGID_7_" cx="500.4507" cy="685.4414" r="137.5379" gradientTransform="matrix(0.6578 0.6352 -0.6947 0.7193 284.753 -673.2359)" gradientUnits="userSpaceOnUse">
			<stop  offset="0.53" style="stop-color:#FFFFFF"/>
			<stop  offset="0.5983" style="stop-color:#FFF7E9"/>
			<stop  offset="0.7402" style="stop-color:#FFE3B0"/>
			<stop  offset="0.77" style="stop-color:#FFDFA3"/>
			<stop  offset="0.8036" style="stop-color:#FFD991"/>
			<stop  offset="0.8709" style="stop-color:#FFC961"/>
			<stop  offset="0.88" style="stop-color:#FFC75A"/>
			<stop  offset="0.91" style="stop-color:#FEC34A"/>
			<stop  offset="0.9657" style="stop-color:#FDBE32"/>
			<stop  offset="1" style="stop-color:#FDBC29"/>
		</radialGradient>
		<path fill="url(#SVGID_7_)" d="M190.456,89.712l49.512-44.25c-3.75-4.152-7.745-8.076-11.969-11.746l-43.795,49.959
			C186.411,85.552,188.497,87.58,190.456,89.712z"/>
		
			<radialGradient id="SVGID_8_" cx="850.4233" cy="817.2959" r="137.3581" gradientTransform="matrix(0.3719 0.8354 -0.9135 0.4067 568.1044 -905.1508)" gradientUnits="userSpaceOnUse">
			<stop  offset="0.53" style="stop-color:#FFFFFF"/>
			<stop  offset="0.5983" style="stop-color:#FFF7E9"/>
			<stop  offset="0.7402" style="stop-color:#FFE3B0"/>
			<stop  offset="0.77" style="stop-color:#FFDFA3"/>
			<stop  offset="0.8036" style="stop-color:#FFD991"/>
			<stop  offset="0.8709" style="stop-color:#FFC961"/>
			<stop  offset="0.88" style="stop-color:#FFC75A"/>
			<stop  offset="0.91" style="stop-color:#FEC34A"/>
			<stop  offset="0.9657" style="stop-color:#FDBE32"/>
			<stop  offset="1" style="stop-color:#FDBC29"/>
		</radialGradient>
		<path fill="url(#SVGID_8_)" d="M204.582,112.424l62.364-22.415c-1.942-5.263-4.197-10.372-6.742-15.308l-59.154,29.851
			C202.379,107.111,203.569,109.691,204.582,112.424z"/>
		<radialGradient id="SVGID_9_" cx="137.4985" cy="137.7344" r="137.7936" gradientUnits="userSpaceOnUse">
			<stop  offset="0.72" style="stop-color:#FFFFFF"/>
			<stop  offset="0.8086" style="stop-color:#FFF8ED"/>
			<stop  offset="0.9864" style="stop-color:#FFE6BD"/>
			<stop  offset="1" style="stop-color:#FFE5B9"/>
		</radialGradient>
		<path fill="url(#SVGID_9_)" d="M119.13,118.191l19.252-13.224l16.777,12.222l12.586,2.496l12.832,8.727
			c0,0,13.996-9.315,24.697-16.2c-1.848-4.867-4.212-9.479-7.036-13.766l46.458-35.964l-49.388,31.839
			c-4.438-5.79-9.748-10.88-15.736-15.065l29.12-49.927l-33.298,47.22c-6.206-3.72-13.03-6.517-20.283-8.2l8.337-57.479
			L150.2,67.396c-3.631-0.572-7.354-0.875-11.148-0.875c-4.041,0-8.001,0.342-11.854,0.992l-13.277-56.642l8.362,57.65
			c-7.187,1.748-13.947,4.584-20.09,8.336L68.676,29.33l29.333,50.29c-5.885,4.189-11.099,9.263-15.455,15.016L32.676,62.482
			l46.938,36.34c-2.703,4.165-4.981,8.627-6.774,13.333c5.8,4.585,23.461,18.5,24.075,18.5
			C97.658,130.655,119.13,118.191,119.13,118.191z"/>
		<path fill="#004B8D" d="M271.592,105.311l-17.721-12.825c0,0-21.224,16.46-22.457,16.709c-1.232,0.25-14.803-4.739-14.803-4.739
			c-4.938,2.495-36.034,23.195-36.034,23.195l-12.832-8.732l-12.586-2.49l-16.777-12.22l-19.252,13.216
			c0,0-21.472,12.47-22.215,12.47c-0.737,0-25.911-19.953-25.911-19.953L59.409,97.722c-1.975,1.248-11.356,5.491-11.356,5.491
			L32.017,91.988l-28.889,16.46C1.086,117.884,0,127.671,0,137.721c0,8.801,0.836,17.411,2.414,25.754
			c12.102-2.205,34.172-5.338,52.428-3.034c26.652,3.37,43.309,7.857,71.443,14.217c28.131,6.358,48.865,12.347,79.216,8.977
			c28.413-3.147,49.043-8.927,67.955-22.542c1.299-7.601,1.982-15.406,1.982-23.371
			C275.438,126.555,274.103,115.701,271.592,105.311z"/>
	</g>
	<path fill="#004B8D" d="M353.25,46.422c0-6.387-0.45-8.08-4.762-8.426l-2.999-0.207c-0.489-0.388-0.351-2.118,0.096-2.158
		c5.171-0.461,11.689-0.69,20.599-0.69c6.036,0,11.785,0.432,16.098,2.417c4.119,1.813,7.281,5.265,7.281,10.789
		c0,6.216-4.025,9.41-9.773,11.826c0,0.862,0.768,1.123,1.82,1.294c5.174,0.865,12.838,5.18,12.838,14.416
		c0,10.013-8.238,16.746-25.485,16.746c-2.778,0-7.473-0.26-11.497-0.26c-4.216,0-7.473,0.175-11.019,0.26
		c-0.575-0.26-0.767-1.64-0.191-2.159l1.725-0.259c5.077-0.777,5.269-1.726,5.269-10.789V46.422z M361.106,57.901
		c0,2.418,0.096,2.59,4.982,2.418c9.771-0.346,15.043-2.937,15.043-11.049c0-8.459-6.996-11.653-14.275-11.653
		c-2.109,0-3.547,0.173-4.408,0.518c-0.958,0.259-1.342,0.692-1.342,2.243V57.901z M361.106,77.927c0,3.108,0.191,7.509,2.012,9.409
		c1.821,1.985,4.696,2.416,7.57,2.416c8.526,0,15.041-3.452,15.041-12.083c0-6.819-3.832-14.761-19.065-14.761
		c-5.174,0-5.558,0.518-5.558,2.244V77.927z"/>
	<path fill="#004B8D" d="M461.042,54.918c0-7.815-0.164-9.068-4.992-9.436l-2.047-0.148c-0.492-0.295-0.326-1.623,0.164-1.844
		c4.092,0.147,6.875,0.222,10.311,0.222c3.275,0,6.057-0.075,10.148-0.222c0.492,0.222,0.654,1.549,0.164,1.844l-2.045,0.148
		c-4.83,0.368-4.992,1.621-4.992,9.436v26.249c0,7.815,0.162,8.848,4.992,9.364l2.045,0.22c0.49,0.295,0.328,1.621-0.164,1.843
		c-4.092-0.148-6.873-0.223-10.148-0.223c-3.436,0-6.219,0.075-10.311,0.223c-0.49-0.223-0.656-1.401-0.164-1.843l2.047-0.22
		c4.828-0.517,4.992-1.549,4.992-9.364V54.918z"/>
	<path fill="#004B8D" d="M506.444,81.314c0,7.741,0.152,8.847,4.602,9.216l2.453,0.22c0.459,0.295,0.307,1.621-0.152,1.843
		c-4.371-0.148-6.979-0.223-10.047-0.223c-3.066,0-5.75,0.075-10.656,0.223c-0.461-0.223-0.615-1.474,0-1.843l2.76-0.22
		c4.371-0.37,4.752-1.476,4.752-9.216V48.355c0-2.285,0-2.357-2.299-2.357h-4.217c-3.297,0-7.514,0.147-9.432,1.842
		c-1.84,1.623-2.607,3.245-3.449,5.087c-0.615,0.443-1.688,0.074-1.994-0.516c1.225-3.317,2.377-8.036,2.912-10.985
		c0.232-0.147,1.229-0.221,1.457,0c0.461,2.358,2.992,2.285,6.52,2.285h31.053c4.141,0,4.83-0.147,5.98-2.063
		c0.385-0.148,1.229-0.074,1.381,0.22c-0.844,3.024-1.381,8.996-1.15,11.208c-0.307,0.59-1.609,0.59-1.992,0.148
		c-0.23-1.845-0.768-4.572-1.918-5.383c-1.764-1.254-4.676-1.842-8.895-1.842h-5.443c-2.301,0-2.225,0.073-2.225,2.505V81.314z"/>
	<path fill="#004B8D" d="M539.309,54.918c0-7.815-0.164-9.068-4.992-9.436l-2.047-0.148c-0.49-0.295-0.326-1.623,0.164-1.844
		c4.092,0.147,6.875,0.222,10.312,0.222c3.273,0,6.055-0.075,10.146-0.222c0.492,0.222,0.656,1.549,0.166,1.844l-2.049,0.148
		c-4.828,0.368-4.99,1.621-4.99,9.436v26.249c0,7.815,0.162,8.848,4.99,9.364l2.049,0.22c0.49,0.295,0.326,1.621-0.166,1.843
		c-4.092-0.148-6.873-0.223-10.146-0.223c-3.438,0-6.221,0.075-10.312,0.223c-0.49-0.223-0.654-1.401-0.164-1.843l2.047-0.22
		c4.828-0.517,4.992-1.549,4.992-9.364V54.918z"/>
	<path fill="#004B8D" d="M575.983,93.349c-7.309,0-11.92-1.917-13.572-2.727c-1.045-1.623-2.176-6.857-2.35-10.323
		c0.436-0.517,1.74-0.664,2.088-0.222c1.307,3.761,4.873,10.985,14.965,10.985c7.309,0,10.875-4.055,10.875-8.479
		c0-3.243-0.783-6.855-7.135-10.322l-8.264-4.572c-4.35-2.433-9.396-6.635-9.396-12.681c0-7.004,6.438-12.682,17.748-12.682
		c2.695,0,5.828,0.443,8.09,0.959c1.131,0.295,2.35,0.442,3.045,0.442c0.783,1.771,1.568,5.899,1.568,8.996
		c-0.35,0.443-1.742,0.663-2.176,0.221c-1.131-3.538-3.48-8.331-11.832-8.331c-8.527,0-10.354,4.793-10.354,8.183
		c0,4.277,4.176,7.375,7.395,9.069l6.959,3.686c5.482,2.875,10.877,7.151,10.877,14.157
		C594.514,87.819,587.293,93.349,575.983,93.349z"/>
	<path fill="#004B8D" d="M619.772,68.558c-3.807,0-3.965,0.147-3.965,2.359v10.397c0,7.741,0.396,8.773,4.84,9.216l2.299,0.22
		c0.477,0.295,0.318,1.621-0.158,1.843c-4.283-0.148-6.98-0.223-10.076-0.223c-3.412,0-6.109,0.148-9.203,0.223
		c-0.475-0.223-0.635-1.401-0.158-1.843l1.348-0.22c4.445-0.738,4.602-1.476,4.602-9.216V54.771c0-7.742-0.553-8.994-4.68-9.289
		l-2.062-0.148c-0.477-0.295-0.318-1.623,0.158-1.844c3.887,0.075,6.584,0.222,9.996,0.222c3.096,0,5.793-0.075,9.203-0.222
		c0.477,0.222,0.635,1.549,0.16,1.844l-1.51,0.148c-4.6,0.442-4.758,1.547-4.758,9.289v8.479c0,2.285,0.158,2.359,3.965,2.359
		h22.691c3.809,0,3.967-0.075,3.967-2.359v-8.479c0-7.742-0.158-8.847-4.838-9.289l-1.508-0.148
		c-0.477-0.295-0.318-1.623,0.158-1.844c3.65,0.147,6.348,0.222,9.6,0.222c3.094,0,5.791-0.075,9.361-0.222
		c0.477,0.222,0.635,1.549,0.158,1.844l-1.664,0.148c-4.602,0.442-4.762,1.547-4.762,9.289v26.543c0,7.741,0.16,8.7,4.762,9.216
		l1.904,0.22c0.475,0.295,0.316,1.621-0.158,1.843c-3.811-0.148-6.508-0.223-9.602-0.223c-3.252,0-6.109,0.075-9.6,0.223
		c-0.477-0.223-0.635-1.401-0.158-1.843l1.508-0.22c4.838-0.738,4.838-1.476,4.838-9.216V70.917c0-2.212-0.158-2.359-3.967-2.359
		H619.772z"/>
	<path fill="#004B8D" d="M307.843,108.794c6.521-5.073,14.829-7.565,24.12-7.565c4.823,0,11.612,0.979,15.812,2.137
		c1.072,0.267,1.697,0.445,2.501,0.355c0.089,2.048,0.536,7.654,1.25,13.085c-0.446,0.623-1.786,0.713-2.411,0.18
		c-1.34-6.054-5.36-12.998-18.313-12.998c-13.668,0-25.281,8.636-25.281,27.062c0,18.693,11.881,29.021,26.531,29.021
		c11.523,0,16.616-7.479,18.67-12.731c0.626-0.443,1.967-0.267,2.322,0.357c-0.624,4.629-2.948,10.503-4.288,12.195
		c-1.072,0.179-2.144,0.534-3.126,0.889c-1.966,0.715-8.397,2.049-14.115,2.049c-8.04,0-15.722-1.602-22.243-5.965
		c-7.147-4.896-12.686-12.994-12.686-24.478C296.586,122.503,301.054,114.047,307.843,108.794z"/>
	<path fill="#004B8D" d="M356.699,137.588c0-14.746,11.612-26.026,27.561-26.026c17.882,0,26.862,12.312,26.862,25.289
		c0,14.895-11.922,25.732-26.862,25.732C367.074,162.583,356.699,150.858,356.699,137.588z M403.379,139.137
		c0-12.166-5.65-25.29-20.437-25.29c-8.052,0-18.502,5.235-18.502,21.383c0,10.911,5.573,25.068,20.823,25.068
		C394.555,160.298,403.379,153.662,403.379,139.137z"/>
	<path fill="#004B8D" d="M498.461,131.248c0-4.571-0.156-13.052-1.486-15.262c-0.547-0.886-1.953-1.402-3.906-1.55l-1.953-0.147
		c-0.469-0.516-0.314-1.474,0.154-1.771c2.971,0.147,5.863,0.223,8.91,0.223c3.283,0,5.395-0.075,8.207-0.22
		c0.625,0.368,0.547,1.325,0.156,1.768l-1.877,0.147c-1.953,0.147-3.439,0.812-3.906,1.771c-1.094,2.432-1.094,10.912-1.094,15.041
		v8.331c0,6.416-1.096,13.198-5.471,17.621c-3.361,3.466-9.145,5.383-14.928,5.383c-5.393,0-10.785-0.959-14.615-4.055
		c-4.143-3.243-6.096-8.626-6.096-17.399v-17.402c0-7.667-0.156-8.921-4.688-9.29l-1.955-0.147
		c-0.469-0.295-0.314-1.547,0.154-1.771c3.91,0.147,6.566,0.223,9.693,0.223c3.203,0,5.783-0.075,9.611-0.22
		c0.469,0.221,0.627,1.473,0.158,1.768l-1.877,0.147c-4.533,0.369-4.689,1.623-4.689,9.29v15.927
		c0,11.87,3.908,19.687,15.865,19.687c11.332,0,15.631-8.407,15.631-19.611V131.248z"/>
	<path fill="#004B8D" d="M589.299,122.038c0-5.512-0.346-6.927-4.232-7.224l-2.766-0.269c-0.314-0.284-0.482-1.776,0.086-1.818
		c4.666-0.349,10.539-0.594,18.574-0.594c5.441,0,10.623,0.372,14.512,2.083c3.715,1.565,6.564,4.544,6.564,9.311
		c0,5.36-3.629,8.117-8.811,10.202c0,0.745,0.689,0.968,1.641,1.117c4.666,0.744,11.576,4.469,11.576,12.436
		c0,8.638-7.43,14.446-22.979,14.446c-2.504,0-6.738-0.223-10.365-0.223c-3.801,0-6.738,0.147-9.934,0.223
		c-0.52-0.223-0.693-1.414-0.174-1.859l1.555-0.225c4.58-0.67,4.752-1.49,4.752-9.308V122.038z M596.383,131.94
		c0,2.087,0.086,2.235,4.49,2.087c8.812-0.298,13.562-2.531,13.562-9.532c0-7.299-6.305-10.055-12.871-10.055
		c-1.9,0-3.195,0.149-3.973,0.448c-0.865,0.223-1.209,0.595-1.209,1.936V131.94z M596.383,149.219c0,2.681,0.172,6.478,1.812,8.117
		c1.643,1.713,4.234,2.085,6.824,2.085c7.689,0,13.562-2.979,13.562-10.426c0-5.884-3.455-12.732-17.189-12.732
		c-4.666,0-5.01,0.444-5.01,1.936V149.219z"/>
	<g>
		<g>
			<path fill="#004B8D" d="M448.532,90.752l-2.047-0.177c-0.414-0.044-0.781-0.096-1.131-0.153
				c-2.994-0.531-4.193-3.196-5.604-5.671l-7.076-12.324c-1.223-2.055-2.533-4.819-5.33-5.213
				c7.252-0.87,13.807-5.056,13.807-12.245c0-8.297-8.215-12.009-16.516-12.009c-4.98,0-9.52,0.135-14.588,0.135
				c-2.795,0-6.121-0.135-8.916-0.135c-1.553,0-1.572,0.316-1.572,1.185c0,1.283,0.541,0.924,2.186,1.017
				c5.904,0.332,5.678,1.433,5.678,6.489v32.313c0,4.625,0.4,6.005-4.455,6.44c0,0-0.744,0.076-1.166,0.121l-2.057,0.211
				c-0.492,0.441-0.326,1.621,0.164,1.842c1.094-0.04,3.033-0.116,3.033-0.116c2.688-0.08,5.375-0.285,8.062-0.285
				c2.703,0,5.289,0.208,7.947,0.286v0.002c0.943,0.029,1.939,0.062,3.031,0.102c0.492-0.221,0.656-1.401,0.164-1.842l-2.07-0.196
				c-0.422-0.045-1.148-0.11-1.148-0.11c-4.902-0.332-4.602-1.715-4.602-6.456V71.795c0-0.711-0.09-2.606,0.436-3.16
				c0.438-0.476,1.223-0.396,1.922-0.396c6.643,0,6.553,0.633,9.699,6.163l8.562,15.405c0.699,1.187,1.223,2.686,2.973,2.686h7.438
				c0.938,0.03,1.924,0.062,3.012,0.102C448.858,92.373,449.022,91.193,448.532,90.752z M418.704,66.524
				c-1.486,0-4.457,0.553-4.457-1.42V50.961c0-5.53,0.176-6.32,6.816-6.32c7.775,0,12.582,3.949,12.582,11.217
				c0,3.16-1.137,6.083-4.02,8.059C426.305,66.209,422.721,66.524,418.704,66.524z"/>
		</g>
	</g>
	<g>
		<path fill="#004B8D" d="M420.307,123.978c0-7.741-0.162-8.923-5.27-9.291l-2.029-0.146c-0.486-0.296-0.324-1.621,0.162-1.845
			c4.543,0.148,7.299,0.222,10.543,0.222c3.164,0,5.92-0.073,9.977-0.219c0.486,0.221,0.648,1.546,0.162,1.842l-1.947,0.146
			c-4.783,0.368-4.947,1.55-4.947,9.291v25.659c0,4.645,0.244,6.562,1.703,7.962c0.893,0.81,2.434,1.696,8.84,1.696
			c6.895,0,8.598-0.296,9.896-0.958c1.621-0.887,3.73-3.539,5.352-7.301c0.488-0.366,2.027-0.074,2.027,0.442
			c0,0.812-2.271,8.333-3.406,10.322c-4.135-0.147-11.842-0.222-20.195-0.222h-7.461c-3.406,0-6,0.074-10.543,0.222
			c-0.486-0.222-0.648-1.401-0.162-1.843l2.434-0.221c4.703-0.442,4.865-1.476,4.865-9.216V123.978z"/>
		<path fill="#004B8D" d="M637.571,124.124c0-7.814-0.158-9.069-4.855-9.438l-1.992-0.146c-0.477-0.296-0.318-1.621,0.162-1.845
			c3.979,0.148,6.686,0.222,10.031,0.222c3.186,0,5.893-0.073,9.875-0.219c0.477,0.221,0.637,1.546,0.158,1.842l-1.992,0.146
			c-4.697,0.368-4.855,1.623-4.855,9.438v26.25c0,7.815,0.158,8.847,4.855,9.363l1.992,0.221c0.479,0.295,0.318,1.621-0.158,1.843
			c-3.982-0.147-6.689-0.222-9.875-0.222c-3.346,0-6.053,0.074-10.031,0.222c-0.48-0.222-0.639-1.401-0.162-1.843l1.992-0.221
			c4.697-0.517,4.855-1.548,4.855-9.363V124.124z"/>
		<path fill="#004B8D" d="M573.942,159.72c-0.408-0.044-1.172-0.104-1.172-0.104c-0.838-0.085-1.592-0.205-2.188-0.855
			c-1.033-1.098-0.947-4.226-0.947-5.478v-32.308c0-1.409-0.344-4.459,0.689-5.556c0.518-0.577,1.592-0.674,2.549-0.729v-0.004
			c0.582-0.044,0.596-0.046,1.105-0.07l2.047-0.146c0.49-0.296,0.326-1.622-0.164-1.844c-1.094,0.038-2.088,0.023-3.033,0.053v0.004
			h-8.699c-0.947,0-1.809,0-2.324,1.018l-17.727,36.923l-15.658-35.671c-0.518-1.252-0.602-2.27-2.238-2.27h-9.055
			c-0.943-0.029-1.984-0.019-3.078-0.057c-0.49,0.222-0.656,1.548-0.164,1.844l2.047,0.146c0.422,0.033,1.186,0.086,1.186,0.086
			c3.396,0.218,3.607,0.977,3.299,4.552l-2.668,34.653c-0.232,3.479-0.424,5.318-4.068,5.657c0,0-0.77,0.097-1.193,0.142
			l-2.045,0.222c-0.492,0.44-0.328,1.62,0.164,1.841c1.078-0.04,2.996-0.096,2.996-0.096c1.848-0.091,3.729-0.255,5.611-0.255
			c2.029,0,4.062,0.191,6.096,0.272v0.004c0.941,0.029,1.938,0.062,3.031,0.101c0.492-0.221,0.656-1.4,0.164-1.842l-2.045-0.222
			c-0.539-0.042-1.143-0.102-1.143-0.102c-5.26-0.36-5.143-4.073-4.814-8.615l2.496-32.229h0.604l16.951,39.659
			c0.17,0.548,0.428,1.486,1.289,1.486c0.775,0,1.033-0.858,1.291-1.409l19.102-40.679h0.604v35.438
			c0,1.407,0.172,4.303-1.291,5.396c-0.764,0.569-3.25,0.911-3.25,0.911c-0.342,0.054-0.701,0.104-1.109,0.146l-2.045,0.221
			c-0.492,0.441-0.328,1.621,0.164,1.843c1.078-0.039,2.99-0.099,2.99-0.099c2.773-0.077,5.592-0.283,8.412-0.283
			c2.027,0,5.998,0.192,5.998,0.192c0.945,0.029,2.023,0.133,3.117,0.172c0.492-0.222,0.656-1.4,0.164-1.842L573.942,159.72z"/>
		<g>
			<g>
				<path fill="#004B8D" d="M706.917,159.92l-0.275-0.221c-0.408-0.043-0.771-0.093-1.113-0.149
					c-3.189-0.712-4.432-4.552-5.609-7.288l-16.408-38.834c-0.164-0.466-0.488-1.471-1.139-1.471c-0.895,0-1.137,1.083-1.381,1.7
					l-15.676,38.76c-0.57,1.47-2.031,5.031-3.088,6.111c-0.809,0.829-1.863,0.987-2.986,1.104c0,0-0.885,0.084-1.307,0.13
					l-1.928,0.196c-0.49,0.441-0.326,1.621,0.164,1.843c1.094-0.039,3.033-0.109,3.033-0.109c2.145-0.029,4.289-0.301,6.436-0.301
					c1.807,0,3.611,0.192,5.414,0.272c0,0,1.939,0.069,3.033,0.11c0.49-0.223,0.654-1.402,0.164-1.844l-2.047-0.222
					c-0.406-0.042-1.109-0.108-1.109-0.108c-1.887-0.209-4.236-0.546-4.236-2.62c0-1.392,0.65-3.017,1.137-4.255l2.436-5.8
					c1.221-2.784,0.732-3.096,3.98-3.096h11.049c3.898,0,3.328,0,5.037,3.948l2.598,5.876c0.406,1.008,1.137,2.709,1.137,3.795
					c0,1.942-2.123,2.07-4.105,2.238c0,0-0.658,0.056-1.229,0.1l-1.969,0.143c-0.49,0.441-0.326,1.621,0.166,1.843
					c1.092-0.039,3.031-0.118,3.031-0.118c2.311-0.084,4.637-0.263,6.867-0.263c2.846,0,5.691,0.193,8.535,0.274v-0.003
					c0.934,0.028,0.145,0.062,1.225,0.101C707.243,161.541,707.407,160.361,706.917,159.92z M685.422,141.67h-9.574
					c-0.334,0-2.998,0.313-2.998-0.468c0-0.235,0.166-0.704,0.25-0.938l5.746-14.228c0.166-0.392,0.748-2.347,1.414-2.347
					c0.5,0,1.166,2.033,1.332,2.347l5.662,13.288c0,0.157,0.582,1.407,0.582,1.721C687.836,141.906,685.922,141.67,685.422,141.67z"
					/>
			</g>
		</g>
	</g>
</g>
</svg>
